<svg width="33" height="33" viewBox="0 0 33 33" fill="none" xmlns="http://www.w3.org/2000/svg">
<path d="M31.6239 4.97139L29.4759 6.65098C26.5471 2.90713 21.992 0.503906 16.8771 0.503906C8.04494 0.503906 0.896205 7.64502 0.884779 16.481C0.873353 25.3245 8.03732 32.4961 16.8771 32.4961C23.782 32.4961 29.6663 28.1162 31.9058 21.9806C31.9629 21.8206 31.8791 21.6416 31.7192 21.5883L29.5597 20.8456C29.4844 20.8198 29.402 20.8245 29.3301 20.8586C29.2582 20.8928 29.2026 20.9537 29.175 21.0284C29.1065 21.2188 29.0303 21.4093 28.9503 21.5959C28.2914 23.1574 27.3469 24.559 26.1434 25.7625C24.9496 26.9586 23.5361 27.9129 21.9806 28.5732C20.3695 29.255 18.6519 29.6016 16.8847 29.6016C15.1137 29.6016 13.3998 29.255 11.7888 28.5732C10.2317 27.9157 8.81778 26.961 7.62599 25.7625C6.42895 24.5688 5.47559 23.1537 4.81906 21.5959C4.13732 19.9811 3.79074 18.2672 3.79074 16.4962C3.79074 14.7252 4.13732 13.0113 4.81906 11.3965C5.47794 9.83496 6.42247 8.4334 7.62599 7.22988C8.82951 6.02637 10.2311 5.08184 11.7888 4.41914C13.3998 3.7374 15.1175 3.39082 16.8847 3.39082C18.6557 3.39082 20.3695 3.7374 21.9806 4.41914C23.5376 5.07667 24.9516 6.03139 26.1434 7.22988C26.5204 7.60693 26.8746 8.00684 27.2022 8.42578L24.9094 10.2158C24.864 10.2509 24.8295 10.2981 24.8097 10.3519C24.79 10.4058 24.7859 10.4641 24.7978 10.5202C24.8097 10.5763 24.8373 10.6279 24.8772 10.6691C24.9172 10.7102 24.9679 10.7392 25.0236 10.7528L31.7115 12.3905C31.902 12.4362 32.0886 12.2915 32.0886 12.0973L32.1191 5.20752C32.1152 4.95615 31.822 4.81523 31.6239 4.97139Z" fill="black"/>
</svg>
